<mxfile host="app.diagrams.net" modified="2022-12-30T04:02:55.791Z" agent="5.0 (Windows NT 10.0; Win64; x64) AppleWebKit/537.36 (KHTML, like Gecko) Chrome/108.0.0.0 Safari/537.36" version="20.7.4" etag="40m3MRALVrPKzFnYpgHt" type="github">
  <diagram id="ljlm6tPbO-r7xCwj_o-D" name="第 1 页">
    <mxGraphModel dx="1050" dy="549" grid="1" gridSize="10" guides="1" tooltips="1" connect="1" arrows="1" fold="1" page="1" pageScale="1" pageWidth="827" pageHeight="1169" math="0" shadow="0">
      <root>
        <mxCell id="0" />
        <mxCell id="1" parent="0" />
        <mxCell id="vs_GsY8QJHCzLEr-MYlj-4" value="" style="rounded=0;whiteSpace=wrap;html=1;" vertex="1" parent="1">
          <mxGeometry x="30" y="140" width="660" height="220" as="geometry" />
        </mxCell>
        <mxCell id="vs_GsY8QJHCzLEr-MYlj-3" value="" style="edgeStyle=orthogonalEdgeStyle;rounded=0;orthogonalLoop=1;jettySize=auto;html=1;" edge="1" parent="1" source="vs_GsY8QJHCzLEr-MYlj-1" target="vs_GsY8QJHCzLEr-MYlj-2">
          <mxGeometry relative="1" as="geometry" />
        </mxCell>
        <mxCell id="vs_GsY8QJHCzLEr-MYlj-9" value="thymeleaf" style="edgeLabel;html=1;align=center;verticalAlign=middle;resizable=0;points=[];" vertex="1" connectable="0" parent="vs_GsY8QJHCzLEr-MYlj-3">
          <mxGeometry x="-0.2427" y="-3" relative="1" as="geometry">
            <mxPoint as="offset" />
          </mxGeometry>
        </mxCell>
        <mxCell id="vs_GsY8QJHCzLEr-MYlj-1" value="controller" style="rounded=0;whiteSpace=wrap;html=1;" vertex="1" parent="1">
          <mxGeometry x="220" y="260" width="120" height="60" as="geometry" />
        </mxCell>
        <mxCell id="vs_GsY8QJHCzLEr-MYlj-2" value="web页面" style="rounded=0;whiteSpace=wrap;html=1;" vertex="1" parent="1">
          <mxGeometry x="490" y="260" width="120" height="60" as="geometry" />
        </mxCell>
        <mxCell id="vs_GsY8QJHCzLEr-MYlj-5" value="context （上下文）" style="rounded=0;whiteSpace=wrap;html=1;" vertex="1" parent="1">
          <mxGeometry x="80" y="170" width="80" height="30" as="geometry" />
        </mxCell>
        <mxCell id="vs_GsY8QJHCzLEr-MYlj-6" value="json" style="ellipse;whiteSpace=wrap;html=1;rounded=0;" vertex="1" parent="1">
          <mxGeometry x="290" y="150" width="80" height="80" as="geometry" />
        </mxCell>
        <mxCell id="vs_GsY8QJHCzLEr-MYlj-8" value="" style="endArrow=none;html=1;rounded=0;" edge="1" parent="1">
          <mxGeometry width="50" height="50" relative="1" as="geometry">
            <mxPoint x="290" y="270" as="sourcePoint" />
            <mxPoint x="340" y="220" as="targetPoint" />
          </mxGeometry>
        </mxCell>
        <mxCell id="vs_GsY8QJHCzLEr-MYlj-10" value="" style="endArrow=none;html=1;rounded=0;entryX=0.76;entryY=0.938;entryDx=0;entryDy=0;entryPerimeter=0;" edge="1" parent="1" target="vs_GsY8QJHCzLEr-MYlj-6">
          <mxGeometry width="50" height="50" relative="1" as="geometry">
            <mxPoint x="410" y="290" as="sourcePoint" />
            <mxPoint x="480" y="200" as="targetPoint" />
          </mxGeometry>
        </mxCell>
      </root>
    </mxGraphModel>
  </diagram>
</mxfile>
